<mxfile host="app.diagrams.net" modified="2023-07-01T15:10:58.294Z" agent="Mozilla/5.0 (Windows NT 10.0; Win64; x64) AppleWebKit/537.36 (KHTML, like Gecko) Chrome/114.0.0.0 Safari/537.36" etag="tJ1At9H8gLwUCTA8kVuN" version="21.5.2" type="google">
  <diagram id="p65C6CxDILqTchxCjS02" name="Página-1">
    <mxGraphModel grid="1" page="1" gridSize="10" guides="1" tooltips="1" connect="1" arrows="1" fold="1" pageScale="1" pageWidth="827" pageHeight="1169" math="0" shadow="0">
      <root>
        <mxCell id="0" />
        <mxCell id="1" parent="0" />
        <mxCell id="lakyT8AVZNRBZzUGYRUA-49" value="Terminales" style="rounded=0;whiteSpace=wrap;html=1;" vertex="1" parent="1">
          <mxGeometry x="80" y="100" width="140" height="80" as="geometry" />
        </mxCell>
        <mxCell id="lakyT8AVZNRBZzUGYRUA-8" value="" style="endArrow=none;html=1;rounded=0;startArrow=oval;startFill=1;entryX=0.141;entryY=0.003;entryDx=0;entryDy=0;entryPerimeter=0;" edge="1" parent="1" target="lakyT8AVZNRBZzUGYRUA-49">
          <mxGeometry width="50" height="50" relative="1" as="geometry">
            <mxPoint x="100" y="70" as="sourcePoint" />
            <mxPoint x="130" y="80" as="targetPoint" />
            <Array as="points">
              <mxPoint x="100" y="70" />
            </Array>
          </mxGeometry>
        </mxCell>
        <mxCell id="9q3fvM6oBWTockrDubwG-30" value="RNE&lt;br&gt;- CodTerminal compuesto por 6 letras.&lt;br&gt;- Taxi es booleano, SI = True, No = False.&lt;br&gt;- Telefono texto que debe contener unicamente caracteres numericos.&lt;br&gt;- CodViaje será AI.&lt;br&gt;- MaximoPermitido número positivo de 1 a 50.&lt;br&gt;- Anden número entre 1 y 35.&lt;br&gt;- Precio número positivo.&lt;br&gt;- FechaYHoraArribo &amp;gt; FechaYHoraPartida&lt;br&gt;- FechaYHoraPartida &amp;gt; HoraActual&lt;br&gt;- NombUsuario = 8 caracteres.&lt;br&gt;- Contrasenia debe ser tres letras y tres números.&lt;br&gt;- No pueden haber dos viajes con anden y FechayHoraArribo igual Mínimo +- media hora." style="shape=note;size=20;whiteSpace=wrap;html=1;align=left;" vertex="1" parent="1">
          <mxGeometry x="470" y="480" width="280" height="250" as="geometry" />
        </mxCell>
        <mxCell id="9q3fvM6oBWTockrDubwG-31" value="" style="endArrow=none;html=1;rounded=0;startArrow=oval;startFill=1;entryX=0.684;entryY=-0.016;entryDx=0;entryDy=0;entryPerimeter=0;exitX=0.59;exitY=0.981;exitDx=0;exitDy=0;exitPerimeter=0;" edge="1" parent="1" source="b-1BaU0U2eRZdnHzErfA-2" target="lakyT8AVZNRBZzUGYRUA-49">
          <mxGeometry width="50" height="50" relative="1" as="geometry">
            <mxPoint x="150" y="80" as="sourcePoint" />
            <mxPoint x="180" y="40" as="targetPoint" />
          </mxGeometry>
        </mxCell>
        <mxCell id="b-1BaU0U2eRZdnHzErfA-1" value="&lt;u&gt;CodTerminal&lt;/u&gt;" style="text;html=1;align=center;verticalAlign=middle;resizable=0;points=[];autosize=1;strokeColor=none;fillColor=none;" vertex="1" parent="1">
          <mxGeometry x="50" y="40" width="90" height="30" as="geometry" />
        </mxCell>
        <mxCell id="b-1BaU0U2eRZdnHzErfA-2" value="Ciudad" style="text;html=1;align=center;verticalAlign=middle;resizable=0;points=[];autosize=1;strokeColor=none;fillColor=none;" vertex="1" parent="1">
          <mxGeometry x="140" y="50" width="60" height="30" as="geometry" />
        </mxCell>
        <mxCell id="b-1BaU0U2eRZdnHzErfA-3" value="" style="triangle;whiteSpace=wrap;html=1;rotation=-90;" vertex="1" parent="1">
          <mxGeometry x="120" y="170" width="60" height="80" as="geometry" />
        </mxCell>
        <mxCell id="b-1BaU0U2eRZdnHzErfA-4" value="" style="endArrow=none;html=1;rounded=0;" edge="1" parent="1">
          <mxGeometry width="50" height="50" relative="1" as="geometry">
            <mxPoint x="90" y="290" as="sourcePoint" />
            <mxPoint x="140" y="240" as="targetPoint" />
          </mxGeometry>
        </mxCell>
        <mxCell id="b-1BaU0U2eRZdnHzErfA-5" value="" style="endArrow=none;html=1;rounded=0;exitX=-0.011;exitY=0.681;exitDx=0;exitDy=0;exitPerimeter=0;" edge="1" parent="1" source="b-1BaU0U2eRZdnHzErfA-3">
          <mxGeometry width="50" height="50" relative="1" as="geometry">
            <mxPoint x="150" y="300" as="sourcePoint" />
            <mxPoint x="210" y="290" as="targetPoint" />
          </mxGeometry>
        </mxCell>
        <mxCell id="b-1BaU0U2eRZdnHzErfA-6" value="Internacionales" style="rounded=0;whiteSpace=wrap;html=1;" vertex="1" parent="1">
          <mxGeometry x="10" y="290" width="140" height="80" as="geometry" />
        </mxCell>
        <mxCell id="b-1BaU0U2eRZdnHzErfA-7" value="Nacionales" style="rounded=0;whiteSpace=wrap;html=1;" vertex="1" parent="1">
          <mxGeometry x="170" y="290" width="140" height="80" as="geometry" />
        </mxCell>
        <mxCell id="b-1BaU0U2eRZdnHzErfA-10" value="" style="endArrow=none;html=1;rounded=0;entryX=0.25;entryY=1;entryDx=0;entryDy=0;startArrow=oval;startFill=1;" edge="1" parent="1" target="b-1BaU0U2eRZdnHzErfA-6">
          <mxGeometry width="50" height="50" relative="1" as="geometry">
            <mxPoint x="45" y="400" as="sourcePoint" />
            <mxPoint x="70" y="390" as="targetPoint" />
          </mxGeometry>
        </mxCell>
        <mxCell id="b-1BaU0U2eRZdnHzErfA-11" value="Pais" style="text;html=1;align=center;verticalAlign=middle;resizable=0;points=[];autosize=1;strokeColor=none;fillColor=none;" vertex="1" parent="1">
          <mxGeometry x="20" y="400" width="50" height="30" as="geometry" />
        </mxCell>
        <mxCell id="b-1BaU0U2eRZdnHzErfA-12" value="" style="endArrow=none;html=1;rounded=0;startArrow=oval;startFill=1;entryX=0.714;entryY=1.001;entryDx=0;entryDy=0;entryPerimeter=0;" edge="1" parent="1" target="b-1BaU0U2eRZdnHzErfA-7">
          <mxGeometry width="50" height="50" relative="1" as="geometry">
            <mxPoint x="270" y="400" as="sourcePoint" />
            <mxPoint x="270" y="390" as="targetPoint" />
          </mxGeometry>
        </mxCell>
        <mxCell id="b-1BaU0U2eRZdnHzErfA-13" value="Taxi" style="text;html=1;align=center;verticalAlign=middle;resizable=0;points=[];autosize=1;strokeColor=none;fillColor=none;" vertex="1" parent="1">
          <mxGeometry x="250" y="400" width="40" height="30" as="geometry" />
        </mxCell>
        <mxCell id="b-1BaU0U2eRZdnHzErfA-14" value="Companias" style="rounded=0;whiteSpace=wrap;html=1;" vertex="1" parent="1">
          <mxGeometry x="645" y="100" width="140" height="80" as="geometry" />
        </mxCell>
        <mxCell id="b-1BaU0U2eRZdnHzErfA-16" value="" style="endArrow=none;html=1;rounded=0;startArrow=oval;startFill=1;entryX=0.141;entryY=0.003;entryDx=0;entryDy=0;entryPerimeter=0;" edge="1" parent="1">
          <mxGeometry width="50" height="50" relative="1" as="geometry">
            <mxPoint x="654.66" y="70" as="sourcePoint" />
            <mxPoint x="654.66" y="100" as="targetPoint" />
            <Array as="points">
              <mxPoint x="654.66" y="70" />
            </Array>
          </mxGeometry>
        </mxCell>
        <mxCell id="b-1BaU0U2eRZdnHzErfA-17" value="&lt;u&gt;Nombre&lt;/u&gt;" style="text;html=1;align=center;verticalAlign=middle;resizable=0;points=[];autosize=1;strokeColor=none;fillColor=none;" vertex="1" parent="1">
          <mxGeometry x="620" y="40" width="70" height="30" as="geometry" />
        </mxCell>
        <mxCell id="b-1BaU0U2eRZdnHzErfA-18" value="" style="endArrow=none;html=1;rounded=0;startArrow=oval;startFill=1;entryX=0.141;entryY=0.003;entryDx=0;entryDy=0;entryPerimeter=0;" edge="1" parent="1">
          <mxGeometry width="50" height="50" relative="1" as="geometry">
            <mxPoint x="714.66" y="70" as="sourcePoint" />
            <mxPoint x="714.66" y="100" as="targetPoint" />
            <Array as="points">
              <mxPoint x="714.66" y="70" />
            </Array>
          </mxGeometry>
        </mxCell>
        <mxCell id="b-1BaU0U2eRZdnHzErfA-21" value="Direccion" style="text;html=1;align=center;verticalAlign=middle;resizable=0;points=[];autosize=1;strokeColor=none;fillColor=none;" vertex="1" parent="1">
          <mxGeometry x="680" y="38" width="70" height="30" as="geometry" />
        </mxCell>
        <mxCell id="b-1BaU0U2eRZdnHzErfA-22" value="" style="endArrow=none;html=1;rounded=0;startArrow=oval;startFill=1;entryX=0.141;entryY=0.003;entryDx=0;entryDy=0;entryPerimeter=0;" edge="1" parent="1">
          <mxGeometry width="50" height="50" relative="1" as="geometry">
            <mxPoint x="775" y="70" as="sourcePoint" />
            <mxPoint x="775" y="100" as="targetPoint" />
            <Array as="points">
              <mxPoint x="775" y="70" />
            </Array>
          </mxGeometry>
        </mxCell>
        <mxCell id="b-1BaU0U2eRZdnHzErfA-23" value="Telefono" style="text;html=1;align=center;verticalAlign=middle;resizable=0;points=[];autosize=1;strokeColor=none;fillColor=none;" vertex="1" parent="1">
          <mxGeometry x="745" y="40" width="70" height="30" as="geometry" />
        </mxCell>
        <mxCell id="b-1BaU0U2eRZdnHzErfA-24" value="Viajes" style="rounded=0;whiteSpace=wrap;html=1;" vertex="1" parent="1">
          <mxGeometry x="365" y="100" width="140" height="80" as="geometry" />
        </mxCell>
        <mxCell id="b-1BaU0U2eRZdnHzErfA-26" value="" style="endArrow=none;html=1;rounded=0;startArrow=oval;startFill=1;entryX=0.141;entryY=0.003;entryDx=0;entryDy=0;entryPerimeter=0;" edge="1" parent="1">
          <mxGeometry width="50" height="50" relative="1" as="geometry">
            <mxPoint x="375" y="70" as="sourcePoint" />
            <mxPoint x="375" y="100" as="targetPoint" />
            <Array as="points">
              <mxPoint x="375" y="70" />
            </Array>
          </mxGeometry>
        </mxCell>
        <mxCell id="b-1BaU0U2eRZdnHzErfA-28" value="&lt;u&gt;CodViaje&lt;/u&gt;" style="text;html=1;align=center;verticalAlign=middle;resizable=0;points=[];autosize=1;strokeColor=none;fillColor=none;" vertex="1" parent="1">
          <mxGeometry x="340" y="38" width="70" height="30" as="geometry" />
        </mxCell>
        <mxCell id="b-1BaU0U2eRZdnHzErfA-29" value="" style="endArrow=none;html=1;rounded=0;startArrow=oval;startFill=1;" edge="1" parent="1">
          <mxGeometry width="50" height="50" relative="1" as="geometry">
            <mxPoint x="424.66" y="40" as="sourcePoint" />
            <mxPoint x="425" y="100" as="targetPoint" />
            <Array as="points">
              <mxPoint x="424.66" y="40" />
            </Array>
          </mxGeometry>
        </mxCell>
        <mxCell id="b-1BaU0U2eRZdnHzErfA-30" value="FechaYHoraPartida" style="text;html=1;align=center;verticalAlign=middle;resizable=0;points=[];autosize=1;strokeColor=none;fillColor=none;" vertex="1" parent="1">
          <mxGeometry x="360" y="10" width="130" height="30" as="geometry" />
        </mxCell>
        <mxCell id="b-1BaU0U2eRZdnHzErfA-31" value="" style="endArrow=none;html=1;rounded=0;startArrow=oval;startFill=1;entryX=0.141;entryY=0.003;entryDx=0;entryDy=0;entryPerimeter=0;" edge="1" parent="1">
          <mxGeometry width="50" height="50" relative="1" as="geometry">
            <mxPoint x="475" y="70" as="sourcePoint" />
            <mxPoint x="475" y="100" as="targetPoint" />
            <Array as="points">
              <mxPoint x="475" y="70" />
            </Array>
          </mxGeometry>
        </mxCell>
        <mxCell id="b-1BaU0U2eRZdnHzErfA-32" value="FechaYHoraArribo" style="text;html=1;align=center;verticalAlign=middle;resizable=0;points=[];autosize=1;strokeColor=none;fillColor=none;" vertex="1" parent="1">
          <mxGeometry x="425" y="40" width="120" height="30" as="geometry" />
        </mxCell>
        <mxCell id="b-1BaU0U2eRZdnHzErfA-33" value="" style="endArrow=none;html=1;rounded=0;entryX=0.25;entryY=1;entryDx=0;entryDy=0;startArrow=oval;startFill=1;exitX=0.584;exitY=0.042;exitDx=0;exitDy=0;exitPerimeter=0;" edge="1" parent="1" source="b-1BaU0U2eRZdnHzErfA-34">
          <mxGeometry width="50" height="50" relative="1" as="geometry">
            <mxPoint x="374.66" y="210" as="sourcePoint" />
            <mxPoint x="374.66" y="180" as="targetPoint" />
          </mxGeometry>
        </mxCell>
        <mxCell id="b-1BaU0U2eRZdnHzErfA-34" value="MaximoPermitido" style="text;strokeColor=none;align=center;fillColor=none;html=1;verticalAlign=middle;whiteSpace=wrap;rounded=0;" vertex="1" parent="1">
          <mxGeometry x="340" y="230" width="60" height="30" as="geometry" />
        </mxCell>
        <mxCell id="b-1BaU0U2eRZdnHzErfA-35" value="" style="endArrow=none;html=1;rounded=0;entryX=0.25;entryY=1;entryDx=0;entryDy=0;startArrow=oval;startFill=1;" edge="1" parent="1">
          <mxGeometry width="50" height="50" relative="1" as="geometry">
            <mxPoint x="410" y="210" as="sourcePoint" />
            <mxPoint x="410" y="180" as="targetPoint" />
          </mxGeometry>
        </mxCell>
        <mxCell id="b-1BaU0U2eRZdnHzErfA-36" value="Precio" style="text;html=1;align=center;verticalAlign=middle;resizable=0;points=[];autosize=1;strokeColor=none;fillColor=none;" vertex="1" parent="1">
          <mxGeometry x="385" y="208" width="60" height="30" as="geometry" />
        </mxCell>
        <mxCell id="b-1BaU0U2eRZdnHzErfA-37" value="" style="endArrow=none;html=1;rounded=0;entryX=0.25;entryY=1;entryDx=0;entryDy=0;startArrow=oval;startFill=1;" edge="1" parent="1">
          <mxGeometry width="50" height="50" relative="1" as="geometry">
            <mxPoint x="490.00000000000006" y="210" as="sourcePoint" />
            <mxPoint x="490.00000000000006" y="180" as="targetPoint" />
          </mxGeometry>
        </mxCell>
        <mxCell id="b-1BaU0U2eRZdnHzErfA-38" value="Anden" style="text;html=1;align=center;verticalAlign=middle;resizable=0;points=[];autosize=1;strokeColor=none;fillColor=none;" vertex="1" parent="1">
          <mxGeometry x="465" y="208" width="60" height="30" as="geometry" />
        </mxCell>
        <mxCell id="b-1BaU0U2eRZdnHzErfA-43" value="&lt;font style=&quot;font-size: 10px;&quot;&gt;Recorren&lt;/font&gt;" style="rhombus;whiteSpace=wrap;html=1;" vertex="1" parent="1">
          <mxGeometry x="260" y="115" width="60" height="50" as="geometry" />
        </mxCell>
        <mxCell id="b-1BaU0U2eRZdnHzErfA-44" value="&lt;font style=&quot;font-size: 10px;&quot;&gt;Realizan&lt;/font&gt;" style="rhombus;whiteSpace=wrap;html=1;" vertex="1" parent="1">
          <mxGeometry x="550" y="115" width="60" height="50" as="geometry" />
        </mxCell>
        <mxCell id="b-1BaU0U2eRZdnHzErfA-45" value="" style="endArrow=none;html=1;rounded=0;exitX=1;exitY=0.5;exitDx=0;exitDy=0;entryX=0;entryY=0.5;entryDx=0;entryDy=0;startArrow=oval;startFill=1;" edge="1" parent="1" source="b-1BaU0U2eRZdnHzErfA-43" target="b-1BaU0U2eRZdnHzErfA-24">
          <mxGeometry width="50" height="50" relative="1" as="geometry">
            <mxPoint x="370" y="210" as="sourcePoint" />
            <mxPoint x="420" y="160" as="targetPoint" />
          </mxGeometry>
        </mxCell>
        <mxCell id="b-1BaU0U2eRZdnHzErfA-46" value="" style="endArrow=none;html=1;rounded=0;exitX=1;exitY=0.5;exitDx=0;exitDy=0;entryX=0;entryY=0.5;entryDx=0;entryDy=0;" edge="1" parent="1" source="lakyT8AVZNRBZzUGYRUA-49" target="b-1BaU0U2eRZdnHzErfA-43">
          <mxGeometry width="50" height="50" relative="1" as="geometry">
            <mxPoint x="330" y="150" as="sourcePoint" />
            <mxPoint x="375" y="150" as="targetPoint" />
          </mxGeometry>
        </mxCell>
        <mxCell id="b-1BaU0U2eRZdnHzErfA-47" value="" style="endArrow=oval;html=1;rounded=0;exitX=1;exitY=0.5;exitDx=0;exitDy=0;entryX=0;entryY=0.5;entryDx=0;entryDy=0;endFill=1;" edge="1" parent="1" source="b-1BaU0U2eRZdnHzErfA-24" target="b-1BaU0U2eRZdnHzErfA-44">
          <mxGeometry width="50" height="50" relative="1" as="geometry">
            <mxPoint x="340" y="160" as="sourcePoint" />
            <mxPoint x="385" y="160" as="targetPoint" />
          </mxGeometry>
        </mxCell>
        <mxCell id="b-1BaU0U2eRZdnHzErfA-48" value="" style="endArrow=none;html=1;rounded=0;exitX=1;exitY=0.5;exitDx=0;exitDy=0;entryX=0;entryY=0.5;entryDx=0;entryDy=0;" edge="1" parent="1" source="b-1BaU0U2eRZdnHzErfA-44" target="b-1BaU0U2eRZdnHzErfA-14">
          <mxGeometry width="50" height="50" relative="1" as="geometry">
            <mxPoint x="350" y="170" as="sourcePoint" />
            <mxPoint x="395" y="170" as="targetPoint" />
          </mxGeometry>
        </mxCell>
        <mxCell id="b-1BaU0U2eRZdnHzErfA-49" value="N" style="text;html=1;align=center;verticalAlign=middle;resizable=0;points=[];autosize=1;strokeColor=none;fillColor=none;" vertex="1" parent="1">
          <mxGeometry x="340" y="115" width="30" height="30" as="geometry" />
        </mxCell>
        <mxCell id="b-1BaU0U2eRZdnHzErfA-50" value="N" style="text;html=1;align=center;verticalAlign=middle;resizable=0;points=[];autosize=1;strokeColor=none;fillColor=none;" vertex="1" parent="1">
          <mxGeometry x="210" y="115" width="30" height="30" as="geometry" />
        </mxCell>
        <mxCell id="b-1BaU0U2eRZdnHzErfA-51" value="N" style="text;html=1;align=center;verticalAlign=middle;resizable=0;points=[];autosize=1;strokeColor=none;fillColor=none;" vertex="1" parent="1">
          <mxGeometry x="495" y="115" width="30" height="30" as="geometry" />
        </mxCell>
        <mxCell id="b-1BaU0U2eRZdnHzErfA-52" value="1" style="text;html=1;align=center;verticalAlign=middle;resizable=0;points=[];autosize=1;strokeColor=none;fillColor=none;" vertex="1" parent="1">
          <mxGeometry x="620" y="115" width="30" height="30" as="geometry" />
        </mxCell>
        <mxCell id="b-1BaU0U2eRZdnHzErfA-53" value="&lt;font style=&quot;font-size: 14px;&quot;&gt;Terminales(&lt;u&gt;CodTerminal&lt;/u&gt;, Ciudad) &lt;br&gt;Internacionales(&lt;u&gt;CodTerminal&lt;/u&gt;, Pais)&lt;br&gt;Nacionales(&lt;u&gt;CodTerminal&lt;/u&gt;, Taxi)&lt;br&gt;Companias(&lt;u&gt;Nombre&lt;/u&gt;, Direccion, Telefono)&lt;br&gt;Viajes(&lt;u&gt;CodViaje&lt;/u&gt;, FechaYHoraPartida, FechaYHoraArribo, &lt;br&gt;&lt;span style=&quot;white-space: pre;&quot;&gt;&#x9;&lt;/span&gt;MaximoPermitido, Precio, Anden, NomUsuEmp, Compania)&lt;br&gt;Recorren(&lt;u&gt;CodViaje&lt;/u&gt;, &lt;u&gt;CodTerminal&lt;/u&gt;, Parada)&lt;br&gt;Empleado(&lt;u&gt;NombUsuario&lt;/u&gt;, Contrasenia, NombCompleto)&lt;br&gt;&lt;/font&gt;" style="text;html=1;align=left;verticalAlign=middle;resizable=0;points=[];autosize=1;strokeColor=none;fillColor=none;" vertex="1" parent="1">
          <mxGeometry x="25" y="480" width="420" height="150" as="geometry" />
        </mxCell>
        <mxCell id="b-1BaU0U2eRZdnHzErfA-54" value="Empleados" style="rounded=0;whiteSpace=wrap;html=1;" vertex="1" parent="1">
          <mxGeometry x="362.5" y="310" width="140" height="80" as="geometry" />
        </mxCell>
        <mxCell id="b-1BaU0U2eRZdnHzErfA-55" value="" style="endArrow=none;html=1;rounded=0;entryX=0.25;entryY=1;entryDx=0;entryDy=0;startArrow=oval;startFill=1;" edge="1" parent="1">
          <mxGeometry width="50" height="50" relative="1" as="geometry">
            <mxPoint x="372.5" y="420" as="sourcePoint" />
            <mxPoint x="372.5" y="390" as="targetPoint" />
          </mxGeometry>
        </mxCell>
        <mxCell id="b-1BaU0U2eRZdnHzErfA-56" value="&lt;u&gt;NombUsuario&lt;/u&gt;" style="text;html=1;align=center;verticalAlign=middle;resizable=0;points=[];autosize=1;strokeColor=none;fillColor=none;" vertex="1" parent="1">
          <mxGeometry x="317.5" y="420" width="100" height="30" as="geometry" />
        </mxCell>
        <mxCell id="b-1BaU0U2eRZdnHzErfA-58" value="" style="endArrow=none;html=1;rounded=0;entryX=0.5;entryY=1;entryDx=0;entryDy=0;startArrow=oval;startFill=1;exitX=0.504;exitY=-0.008;exitDx=0;exitDy=0;exitPerimeter=0;" edge="1" parent="1" source="b-1BaU0U2eRZdnHzErfA-59" target="b-1BaU0U2eRZdnHzErfA-54">
          <mxGeometry width="50" height="50" relative="1" as="geometry">
            <mxPoint x="432.16" y="420" as="sourcePoint" />
            <mxPoint x="432.16" y="390" as="targetPoint" />
          </mxGeometry>
        </mxCell>
        <mxCell id="b-1BaU0U2eRZdnHzErfA-59" value="Contrasenia" style="text;html=1;align=center;verticalAlign=middle;resizable=0;points=[];autosize=1;strokeColor=none;fillColor=none;" vertex="1" parent="1">
          <mxGeometry x="387.5" y="440" width="90" height="30" as="geometry" />
        </mxCell>
        <mxCell id="b-1BaU0U2eRZdnHzErfA-60" value="" style="endArrow=none;html=1;rounded=0;entryX=0.926;entryY=1;entryDx=0;entryDy=0;startArrow=oval;startFill=1;entryPerimeter=0;" edge="1" parent="1" target="b-1BaU0U2eRZdnHzErfA-54">
          <mxGeometry width="50" height="50" relative="1" as="geometry">
            <mxPoint x="492.15999999999997" y="420" as="sourcePoint" />
            <mxPoint x="492.15999999999997" y="390" as="targetPoint" />
          </mxGeometry>
        </mxCell>
        <mxCell id="b-1BaU0U2eRZdnHzErfA-61" value="NombCompleto" style="text;html=1;align=center;verticalAlign=middle;resizable=0;points=[];autosize=1;strokeColor=none;fillColor=none;" vertex="1" parent="1">
          <mxGeometry x="442.5" y="420" width="110" height="30" as="geometry" />
        </mxCell>
        <mxCell id="b-1BaU0U2eRZdnHzErfA-63" value="&lt;font style=&quot;font-size: 10px;&quot;&gt;Venden&lt;/font&gt;" style="rhombus;whiteSpace=wrap;html=1;" vertex="1" parent="1">
          <mxGeometry x="425" y="220" width="60" height="50" as="geometry" />
        </mxCell>
        <mxCell id="b-1BaU0U2eRZdnHzErfA-64" value="" style="endArrow=oval;html=1;rounded=0;entryX=0.5;entryY=0;entryDx=0;entryDy=0;exitX=0.236;exitY=0.071;exitDx=0;exitDy=0;exitPerimeter=0;endFill=1;" edge="1" parent="1" source="b-1BaU0U2eRZdnHzErfA-66" target="b-1BaU0U2eRZdnHzErfA-63">
          <mxGeometry width="50" height="50" relative="1" as="geometry">
            <mxPoint x="430" y="330" as="sourcePoint" />
            <mxPoint x="480" y="280" as="targetPoint" />
          </mxGeometry>
        </mxCell>
        <mxCell id="b-1BaU0U2eRZdnHzErfA-65" value="" style="endArrow=none;html=1;rounded=0;entryX=0.5;entryY=1;entryDx=0;entryDy=0;" edge="1" parent="1" target="b-1BaU0U2eRZdnHzErfA-63">
          <mxGeometry width="50" height="50" relative="1" as="geometry">
            <mxPoint x="455" y="310" as="sourcePoint" />
            <mxPoint x="465" y="230" as="targetPoint" />
          </mxGeometry>
        </mxCell>
        <mxCell id="b-1BaU0U2eRZdnHzErfA-66" value="N" style="text;html=1;align=center;verticalAlign=middle;resizable=0;points=[];autosize=1;strokeColor=none;fillColor=none;" vertex="1" parent="1">
          <mxGeometry x="447.5" y="178" width="30" height="30" as="geometry" />
        </mxCell>
        <mxCell id="b-1BaU0U2eRZdnHzErfA-67" value="1" style="text;html=1;align=center;verticalAlign=middle;resizable=0;points=[];autosize=1;strokeColor=none;fillColor=none;" vertex="1" parent="1">
          <mxGeometry x="445" y="290" width="30" height="30" as="geometry" />
        </mxCell>
        <mxCell id="pWKsBtGS9BN3o4cQYi9u-3" value="" style="endArrow=none;html=1;rounded=0;startArrow=oval;startFill=1;entryX=0.5;entryY=0;entryDx=0;entryDy=0;" edge="1" parent="1" target="b-1BaU0U2eRZdnHzErfA-43">
          <mxGeometry width="50" height="50" relative="1" as="geometry">
            <mxPoint x="289.86" y="85" as="sourcePoint" />
            <mxPoint x="290" y="100" as="targetPoint" />
            <Array as="points" />
          </mxGeometry>
        </mxCell>
        <mxCell id="pWKsBtGS9BN3o4cQYi9u-4" value="Parada" style="text;html=1;align=center;verticalAlign=middle;resizable=0;points=[];autosize=1;strokeColor=none;fillColor=none;" vertex="1" parent="1">
          <mxGeometry x="260" y="58" width="60" height="30" as="geometry" />
        </mxCell>
      </root>
    </mxGraphModel>
  </diagram>
</mxfile>
